<?xml version="1.0" encoding="UTF-8" standalone="no"?>
<!DOCTYPE svg PUBLIC "-//W3C//DTD SVG 20010904//EN"
              "http://www.w3.org/TR/2001/REC-SVG-20010904/DTD/svg10.dtd">

<svg xmlns="http://www.w3.org/2000/svg"
     width="1.32333in" height="1.28667in"
     viewBox="0 0 397 386">
  <path id="التحديد"
        fill="none" stroke="black" stroke-width="1"
        d="M 198.00,23.00
           C 198.00,23.00 200.00,23.00 200.00,23.00
             201.26,30.14 202.51,24.61 212.83,36.00
             215.02,38.41 220.36,44.46 221.86,47.00
             223.94,50.55 223.89,53.36 226.31,54.98
             227.48,55.76 233.16,56.81 235.00,57.27
             235.00,57.27 248.00,59.26 248.00,59.26
             248.00,59.26 258.00,61.57 258.00,61.57
             258.00,61.57 266.00,62.73 266.00,62.73
             269.36,63.71 271.91,65.38 275.00,66.76
             275.00,66.76 286.00,71.87 286.00,71.87
             299.29,80.00 307.83,93.91 317.00,106.00
             317.00,106.00 325.25,116.00 325.25,116.00
             329.18,121.73 333.88,136.05 334.00,143.00
             334.00,143.00 334.00,180.00 334.00,180.00
             334.05,191.47 336.06,189.94 339.20,199.00
             340.14,201.71 342.95,214.20 343.00,217.00
             343.05,220.26 342.58,225.12 344.02,228.00
             347.44,234.83 367.56,244.76 375.00,247.68
             379.39,249.40 392.56,254.59 395.83,249.69
             397.16,247.68 397.06,243.39 396.98,241.00
             396.98,241.00 394.30,224.00 394.30,224.00
             394.30,224.00 392.22,217.00 392.22,217.00
             392.22,217.00 389.26,203.00 389.26,203.00
             389.26,203.00 387.91,193.00 387.91,193.00
             385.49,183.83 383.02,183.45 383.00,173.00
             383.00,173.00 383.00,37.00 383.00,37.00
             382.97,20.38 373.14,14.25 360.00,6.76
             351.52,1.93 353.44,0.02 343.00,0.00
             343.00,0.00 239.00,0.00 239.00,0.00
             227.39,0.02 231.61,1.98 220.00,2.00
             213.50,2.01 203.19,1.94 197.00,3.41
             191.64,4.68 171.80,15.25 167.01,18.68
             163.22,21.41 147.56,40.17 139.00,45.42
             135.74,47.42 133.90,46.68 131.28,48.17
             131.28,48.17 124.99,53.40 124.99,53.40
             124.99,53.40 107.00,66.08 107.00,66.08
             107.00,66.08 92.00,73.84 92.00,73.84
             88.28,76.06 71.09,89.98 68.30,93.17
             68.30,93.17 59.47,107.00 59.47,107.00
             55.31,113.05 48.31,122.12 46.01,129.00
             46.01,129.00 44.56,136.00 44.56,136.00
             42.64,143.88 42.01,143.25 42.00,152.00
             42.00,152.00 42.00,218.00 42.00,218.00
             41.99,226.52 41.31,224.17 40.19,231.00
             35.84,257.70 30.38,270.91 18.39,295.00
             18.39,295.00 12.22,304.00 12.22,304.00
             6.95,313.35 0.26,332.33 0.01,343.00
             -0.15,350.20 0.43,349.58 1.96,356.00
             5.07,369.03 4.27,367.84 13.96,378.00
             16.73,380.91 19.69,385.54 24.00,385.73
             28.44,385.92 39.44,381.99 44.00,380.96
             44.00,380.96 55.00,378.26 55.00,378.26
             55.00,378.26 63.00,377.72 63.00,377.72
             63.00,377.72 76.00,375.22 76.00,375.22
             76.00,375.22 85.00,373.78 85.00,373.78
             93.84,371.84 95.24,369.02 106.00,369.00
             106.00,369.00 292.00,369.00 292.00,369.00
             299.87,368.98 307.44,366.17 315.00,364.08
             315.00,364.08 324.00,361.45 324.00,361.45
             331.44,359.69 334.72,359.93 341.96,355.49
             345.57,353.27 348.70,348.81 351.87,345.63
             351.87,345.63 362.82,334.34 362.82,334.34
             364.97,331.39 373.32,314.42 374.33,310.99
             375.45,306.43 375.04,301.61 374.33,297.00
             372.05,279.25 368.37,277.90 358.48,264.00
             358.48,264.00 352.02,253.00 352.02,253.00
             348.89,248.55 344.14,244.12 340.28,240.17
             330.01,229.62 318.03,217.73 318.00,202.00
             318.00,202.00 318.00,159.00 318.00,159.00
             317.98,149.32 317.40,152.82 314.99,145.00
             314.99,145.00 312.89,136.00 312.89,136.00
             309.75,127.68 302.52,119.06 296.00,113.17
             291.67,109.25 285.16,104.67 280.00,101.91
             280.00,101.91 251.00,90.01 251.00,90.01
             243.97,87.80 229.74,84.30 224.00,81.08
             210.51,73.52 198.03,55.68 198.00,40.00
             198.00,40.00 198.00,23.00 198.00,23.00 Z" />
</svg>
